<svg width="24" height="24" viewBox="0 0 24 24" fill="none" xmlns="http://www.w3.org/2000/svg">
<path d="M12.5 7.6327C12.5 6.18483 11.525 5 10.3335 5H6V14.4787H10.3602C12.5 14.4787 12.5 17.1122 12.5 17.1122M12.5 7.6327C12.5 6.18404 13.475 5 14.6664 5H19V14.4787H14.6664C12.5 14.4787 12.5 17.1122 12.5 17.1122M12.5 7.6327V17.1122M13.7187 18C13.8544 17.6587 14.0656 17.3701 14.3288 17.1666C14.592 16.9632 14.8967 16.8529 15.2085 16.8483H18.35M11.2812 18C11.1481 17.6563 10.9374 17.3657 10.6737 17.1618C10.41 16.9579 10.104 16.8492 9.79145 16.8483H6.65" stroke="black" stroke-width="1.5" stroke-miterlimit="10" stroke-linecap="round" stroke-linejoin="round"/>
</svg>
