<svg width="41" height="41" viewBox="0 0 41 41" fill="none" xmlns="http://www.w3.org/2000/svg">
<path d="M2.91528 18.9087L22.0923 38.0871C22.2614 38.2561 22.4773 38.3706 22.7121 38.4159C22.9469 38.4611 23.1899 38.435 23.4097 38.341L32.8952 34.2782C33.0749 34.201 33.233 34.0808 33.3556 33.9284C33.4782 33.7759 33.5616 33.5957 33.5984 33.4036C33.6353 33.2114 33.6245 33.0132 33.5671 32.8261C33.5096 32.6391 33.4073 32.469 33.2689 32.3307L27.5105 26.5695C27.3329 26.3917 27.1038 26.2743 26.8558 26.2339C26.6078 26.1935 26.3533 26.2321 26.1284 26.3443L23.5127 27.6523L13.3469 17.4858L14.6572 14.8699C14.7697 14.6453 14.8087 14.3909 14.7688 14.1429C14.7288 13.8948 14.6118 13.6656 14.4344 13.4877L8.67126 7.72891C8.53279 7.5906 8.36254 7.48833 8.17541 7.43104C7.98827 7.37376 7.78995 7.36322 7.5978 7.40033C7.40564 7.43744 7.22551 7.52107 7.07315 7.64392C6.9208 7.76676 6.80087 7.92508 6.72386 8.105L2.65898 17.5912C2.56496 17.8111 2.53889 18.054 2.58414 18.2888C2.62939 18.5237 2.74389 18.7395 2.91289 18.9087H2.91528ZM5.17887 17.7876L8.23052 10.673L12.1301 14.5752L11.2079 16.4174L10.4366 17.9601L11.6558 19.1818L21.8192 29.3459L23.0408 30.5676L24.5834 29.7939L26.4278 28.874L30.3274 32.7715L23.2133 35.8209L5.17887 17.7876ZM19.1077 14.707V12.3115C21.6488 12.3115 24.0859 13.321 25.8827 15.118C27.6796 16.915 28.689 19.3522 28.689 21.8935H26.2937C26.2937 19.9875 25.5366 18.1596 24.189 16.8119C22.8413 15.4641 21.0135 14.707 19.1077 14.707ZM19.1077 7.5205V5.125C23.5547 5.125 27.8195 6.89168 30.964 10.0364C34.1085 13.1811 35.875 17.4462 35.875 21.8935H33.4797C33.4797 18.0815 31.9655 14.4257 29.2702 11.7303C26.575 9.03479 22.9194 7.5205 19.1077 7.5205Z" fill="black"/>
</svg>
